# Blender 3.5.1
# www.blender.org
mtllib lanes.mtl
o Venue01.lwo
o Venue01.lwo.001
v -1.478930 0.000001 10.523500
v -0.403029 0.000001 10.523500
v -1.478930 0.000001 8.579760
v -0.403029 0.000001 8.579760
v 0.440771 0.000001 10.523500
v 1.516671 0.000001 10.523500
v 0.440771 0.000001 8.579760
v 1.516671 0.000001 8.579760
v -1.478930 0.000001 6.636020
v -0.403029 0.000001 6.636020
v 0.440771 0.000001 6.636020
v 1.516671 0.000001 6.636020
v -1.478930 0.000000 4.692280
v -0.403029 0.000000 4.692280
v -1.478930 0.000000 2.748530
v -0.403029 0.000000 2.748530
v 0.440771 0.000000 4.692280
v 1.516671 0.000000 4.692280
v 0.440771 0.000000 2.748530
v 1.516671 0.000000 2.748530
v -1.478930 0.000000 0.804789
v -0.403029 0.000000 0.804789
v 0.440771 0.000000 0.804789
v 1.516671 0.000000 0.804789
v -1.478930 -0.000000 -1.138950
v -0.403029 -0.000000 -1.138950
v 0.440771 -0.000000 -1.138950
v 1.516671 -0.000000 -1.138950
v -1.478930 -0.000000 -3.082700
v -0.403029 -0.000000 -3.082700
v -1.478930 -0.000000 -5.026440
v -0.403029 -0.000000 -5.026440
v 0.440771 -0.000000 -3.082700
v 1.516671 -0.000000 -3.082700
v 0.440771 -0.000000 -5.026440
v 1.516671 -0.000000 -5.026440
v -1.478930 -0.000001 -6.970190
v -0.403029 -0.000001 -6.970190
v 0.440771 -0.000001 -6.970190
v 1.516671 -0.000001 -6.970190
v -1.478930 -0.000001 -10.869200
v -0.403029 -0.000001 -10.869200
v -1.478930 -0.000001 -8.913930
v -0.403029 -0.000001 -8.913930
v 0.440771 -0.000001 -10.869200
v 1.516671 -0.000001 -10.869200
v 0.440771 -0.000001 -8.913930
v 1.516671 -0.000001 -8.913930
vn -0.0000 1.0000 -0.0000
vt 0.000499 0.000499
vt 0.999500 0.000499
vt 0.000500 0.999500
vt 0.999501 0.999500
vt 0.000499 0.000499
vt 0.999500 0.000499
vt 0.000500 0.999500
vt 0.999501 0.999500
vt 0.000499 0.000500
vt 0.999500 0.000499
vt 0.000499 0.000500
vt 0.999500 0.000499
vt 0.000500 0.999501
vt 0.000499 0.000500
vt 0.999501 0.999500
vt 0.999500 0.000499
vt 0.000500 0.999501
vt 0.000499 0.000500
vt 0.999501 0.999500
vt 0.999500 0.000499
vt 0.000500 0.999501
vt 0.000499 0.000500
vt 0.999501 0.999500
vt 0.999500 0.000499
vt 0.000500 0.999501
vt 0.000499 0.000500
vt 0.999501 0.999500
vt 0.999500 0.000499
vt 0.000500 0.999501
vt 0.000499 0.000500
vt 0.999501 0.999500
vt 0.999500 0.000499
vt 0.000500 0.999501
vt 0.000499 0.000500
vt 0.999501 0.999500
vt 0.999500 0.000499
vt 0.000500 0.999501
vt 0.000499 0.000500
vt 0.999501 0.999500
vt 0.999500 0.000499
vt 0.000500 0.999501
vt 0.000499 0.000500
vt 0.999501 0.999500
vt 0.999500 0.000499
vt 0.000500 0.999501
vt 0.000499 0.000500
vt 0.999501 0.999500
vt 0.999500 0.000499
vt 0.000500 0.999501
vt 0.000499 0.000499
vt 0.999501 0.999500
vt 0.999500 0.000499
vt 0.000500 0.999501
vt 0.000499 0.000500
vt 0.999501 0.999500
vt 0.999500 0.000499
vt 0.000500 0.999501
vt 0.000499 0.000499
vt 0.999501 0.999500
vt 0.999500 0.000499
vt 0.000500 0.999500
vt 0.000499 0.000500
vt 0.999501 0.999500
vt 0.999500 0.000499
vt 0.000500 0.999500
vt 0.000499 0.000500
vt 0.999501 0.999500
vt 0.999500 0.000499
vt 0.000500 0.999500
vt 0.999501 0.999500
vt 0.000500 0.999501
vt 0.000499 0.000499
vt 0.999501 0.999500
vt 0.999500 0.000499
vt 0.000500 0.999500
vt 0.999501 0.999500
vt 0.000500 0.999501
vt 0.000499 0.000499
vt 0.999501 0.999500
vt 0.999500 0.000499
s 0
usemtl Lane.001
f 3/3/1 1/1/1 4/4/1
f 2/2/1 4/4/1 1/1/1
f 13/13/1 9/9/1 14/15/1
f 10/10/1 14/15/1 9/9/1
f 15/17/1 13/14/1 16/19/1
f 14/16/1 16/19/1 13/14/1
f 21/29/1 15/18/1 22/31/1
f 16/20/1 22/31/1 15/18/1
f 25/37/1 21/30/1 26/39/1
f 22/32/1 26/39/1 21/30/1
f 29/45/1 25/38/1 30/47/1
f 26/40/1 30/47/1 25/38/1
f 31/49/1 29/46/1 32/51/1
f 30/48/1 32/51/1 29/46/1
f 37/61/1 31/50/1 38/63/1
f 32/52/1 38/63/1 31/50/1
f 43/71/1 37/62/1 44/73/1
f 38/64/1 44/73/1 37/62/1
f 41/69/1 43/72/1 42/70/1
f 44/74/1 42/70/1 43/72/1
f 7/7/1 5/5/1 8/8/1
f 6/6/1 8/8/1 5/5/1
f 17/21/1 11/11/1 18/23/1
f 12/12/1 18/23/1 11/11/1
f 19/25/1 17/22/1 20/27/1
f 18/24/1 20/27/1 17/22/1
f 23/33/1 19/26/1 24/35/1
f 20/28/1 24/35/1 19/26/1
f 27/41/1 23/34/1 28/43/1
f 24/36/1 28/43/1 23/34/1
f 33/53/1 27/42/1 34/55/1
f 28/44/1 34/55/1 27/42/1
f 35/57/1 33/54/1 36/59/1
f 34/56/1 36/59/1 33/54/1
f 39/65/1 35/58/1 40/67/1
f 36/60/1 40/67/1 35/58/1
f 47/77/1 39/66/1 48/79/1
f 40/68/1 48/79/1 39/66/1
f 45/75/1 47/78/1 46/76/1
f 48/80/1 46/76/1 47/78/1
o Venue01.lwo.002
v -1.478930 0.000001 8.579760
v -0.403029 0.000001 8.579760
v 0.440771 0.000001 8.579760
v 1.516671 0.000001 8.579760
v -1.478930 0.000001 6.636020
v -0.403029 0.000001 6.636020
v 0.440771 0.000001 6.636020
v 1.516671 0.000001 6.636020
vn -0.0000 1.0000 -0.0000
vt 0.000499 0.000500
vt 0.999500 0.000500
vt 0.000499 0.000500
vt 0.999500 0.000500
vt 0.000500 0.999501
vt 0.999501 0.999501
vt 0.000500 0.999501
vt 0.999501 0.999501
s 0
usemtl Lane_arrows.001
f 53/85/2 49/81/2 54/86/2
f 50/82/2 54/86/2 49/81/2
f 55/87/2 51/83/2 56/88/2
f 52/84/2 56/88/2 51/83/2
o Venue01.lwo.003
v 1.547771 -0.091376 10.523500
v 1.583171 -0.123107 10.523500
v 1.626671 -0.139989 10.523500
v 1.672871 -0.139988 10.523500
v 1.716371 -0.123106 10.523500
v 1.751771 -0.091376 10.523500
v 1.774871 -0.048629 10.523500
v 0.440771 -0.000014 10.523500
v 0.204771 -0.091377 10.523500
v 0.240170 -0.123109 10.523500
v 0.283671 -0.139990 10.523500
v 0.329871 -0.139989 10.523500
v 0.373371 -0.123107 10.523500
v 0.408771 -0.091377 10.523500
v 0.431871 -0.048630 10.523500
v 1.782671 -0.000018 10.523500
v 0.181571 -0.048633 -10.869200
v 0.204771 -0.091380 -10.869200
v 0.240170 -0.123111 -10.869200
v 0.283671 -0.139994 -10.869200
v 0.329871 -0.139994 -10.869200
v 0.373371 -0.123110 -10.869200
v 0.408771 -0.091380 -10.869200
v 0.431871 -0.048633 -10.869200
v 1.524571 -0.048632 -10.869200
v 1.547771 -0.091379 -10.869200
v 1.583171 -0.123110 -10.869200
v 1.626671 -0.139992 -10.869200
v 1.672871 -0.139992 -10.869200
v 1.716371 -0.123109 -10.869200
v 1.751771 -0.091379 -10.869200
v 1.774871 -0.048632 -10.869200
v 1.516671 -0.000015 10.523500
v 0.173571 -0.000018 10.523500
v 0.181571 -0.048630 10.523500
v 1.524571 -0.048629 10.523500
v 0.173571 -0.000022 -10.869200
v 0.440771 -0.000021 -10.869200
v 1.782571 -0.000025 -10.869200
v 1.516671 -0.000018 -10.869200
vn 0.9871 0.1604 -0.0000
vn 0.8789 0.4770 -0.0000
vn 0.6675 0.7447 -0.0000
vn 0.6674 0.7447 -0.0000
vn 0.3618 0.9323 -0.0000
vn -0.0000 1.0000 -0.0000
vn -0.3618 0.9323 -0.0000
vn -0.6674 0.7447 -0.0000
vn -0.8798 0.4754 -0.0000
vn -0.8797 0.4754 -0.0000
vn -0.9874 0.1584 -0.0000
vn -0.9877 0.1565 -0.0000
vn 0.9867 0.1624 -0.0000
vn 0.6675 0.7446 -0.0000
vn -0.3619 0.9322 -0.0000
vn -0.6675 0.7446 -0.0000
vn -0.8797 0.4755 -0.0000
vn -0.9837 0.1800 -0.0000
vn -0.9837 0.1801 -0.0000
vt 0.117365 -6.906427
vt 0.250255 -6.906427
vt 0.413267 -6.906427
vt 0.586737 -6.906427
vt 0.749749 -6.906427
vt 0.882639 -6.906427
vt 0.969374 -6.906428
vt 0.999496 -6.906428
vt 0.117365 -6.906427
vt 0.250255 -6.906427
vt 0.413267 -6.906427
vt 0.586737 -6.906427
vt 0.749749 -6.906427
vt 0.882639 -6.906427
vt 0.969374 -6.906428
vt 0.999496 -6.906428
vt 0.030627 7.906425
vt 0.117364 7.906425
vt 0.250257 7.906425
vt 0.413268 7.906425
vt 0.586739 7.906425
vt 0.749751 7.906425
vt 0.882644 7.906425
vt 0.969375 7.906425
vt 0.030627 7.906425
vt 0.117364 7.906425
vt 0.250257 7.906425
vt 0.413268 7.906425
vt 0.586739 7.906425
vt 0.749751 7.906425
vt 0.882644 7.906425
vt 0.969375 7.906425
vt 0.000499 -6.906427
vt 0.000499 -6.906427
vt 0.030629 -6.906427
vt 0.030629 -6.906427
vt 0.000509 7.906425
vt 0.999500 7.906425
vt 0.999500 7.906425
vt 0.000509 7.906425
s 0
usemtl GUTTER.001
f 81/113/3 96/128/3 92/124/3
f 57/89/4 81/113/4 92/124/4
f 82/114/4 81/113/4 57/89/4
f 58/90/5 82/114/5 57/89/5
f 83/115/6 82/114/6 58/90/6
f 59/91/7 83/115/7 58/90/7
f 84/116/7 83/115/7 59/91/7
f 60/92/8 84/116/8 59/91/8
f 85/117/8 84/116/8 60/92/8
f 61/93/9 85/117/9 60/92/9
f 86/118/9 85/117/9 61/93/9
f 62/94/10 86/118/10 61/93/10
f 87/119/10 86/118/10 62/94/10
f 63/95/11 87/119/11 62/94/11
f 88/120/12 87/119/12 63/95/12
f 72/104/13 88/120/13 63/95/13
f 95/127/14 88/120/14 72/104/14
f 73/105/15 93/125/15 91/123/15
f 65/97/4 73/105/4 91/123/4
f 74/106/4 73/105/4 65/97/4
f 66/98/16 74/106/16 65/97/16
f 75/107/16 74/106/16 66/98/16
f 67/99/7 75/107/7 66/98/7
f 76/108/7 75/107/7 67/99/7
f 68/100/8 76/108/8 67/99/8
f 77/109/8 76/108/8 68/100/8
f 69/101/9 77/109/9 68/100/9
f 78/110/17 77/109/17 69/101/17
f 70/102/10 78/110/10 69/101/10
f 79/111/18 78/110/18 70/102/18
f 71/103/11 79/111/11 70/102/11
f 80/112/19 79/111/19 71/103/19
f 64/96/20 80/112/20 71/103/20
f 94/126/21 80/112/21 64/96/21
f 92/124/3 96/128/3 89/121/3
f 91/123/15 93/125/15 90/122/15
o Venue01.lwo.004
v -1.478930 -0.000014 10.523500
v -1.715029 -0.091377 10.523500
v -1.679529 -0.123109 10.523500
v -1.636129 -0.139990 10.523500
v -1.589829 -0.139989 10.523500
v -1.546429 -0.123107 10.523500
v -1.510929 -0.091377 10.523500
v -1.487829 -0.048630 10.523500
v -0.372029 -0.091376 10.523500
v -0.336529 -0.123107 10.523500
v -0.293129 -0.139989 10.523500
v -0.246829 -0.139988 10.523500
v -0.203429 -0.123106 10.523500
v -0.167929 -0.091376 10.523500
v -0.144829 -0.048629 10.523500
v -0.137129 -0.000018 10.523500
v -1.738129 -0.048633 -10.869200
v -1.679529 -0.123111 -10.869200
v -1.636129 -0.139994 -10.869200
v -1.589829 -0.139994 -10.869200
v -1.546429 -0.123110 -10.869200
v -1.510929 -0.091380 -10.869200
v -1.487829 -0.048633 -10.869200
v -1.715029 -0.091380 -10.869200
v -0.336529 -0.123110 -10.869200
v -0.293129 -0.139992 -10.869200
v -0.246829 -0.139992 -10.869200
v -0.395129 -0.048632 -10.869200
v -0.203429 -0.123109 -10.869200
v -0.372029 -0.091379 -10.869200
v -0.167929 -0.091379 -10.869200
v -0.144829 -0.048632 -10.869200
v -0.403029 -0.000015 10.523500
v -1.746129 -0.000018 10.523500
v -1.738129 -0.048630 10.523500
v -0.395129 -0.048629 10.523500
v -1.746129 -0.000022 -10.869200
v -1.478930 -0.000017 -10.869200
v -0.137129 -0.000027 -10.869200
v -0.403029 -0.000018 -10.869200
vn 0.9867 0.1624 -0.0000
vn 0.8798 0.4754 -0.0000
vn 0.6664 0.7456 -0.0000
vn 0.3625 0.9320 -0.0000
vn -0.0000 1.0000 -0.0000
vn -0.3625 0.9320 -0.0000
vn -0.3626 0.9320 -0.0000
vn -0.6664 0.7456 -0.0000
vn -0.8798 0.4754 -0.0000
vn -0.9837 0.1801 -0.0000
vn -0.9837 0.1800 -0.0000
vn 0.9871 0.1604 -0.0000
vn -0.9877 0.1565 -0.0000
vn -0.9877 0.1564 -0.0000
vt 0.999496 -6.906428
vt 0.117365 -6.906427
vt 0.250255 -6.906427
vt 0.413267 -6.906427
vt 0.586737 -6.906427
vt 0.749749 -6.906427
vt 0.882639 -6.906427
vt 0.969374 -6.906428
vt 0.117365 -6.906427
vt 0.250255 -6.906427
vt 0.413267 -6.906427
vt 0.586737 -6.906427
vt 0.749749 -6.906427
vt 0.882639 -6.906427
vt 0.969374 -6.906428
vt 0.999496 -6.906428
vt 0.030627 7.906425
vt 0.250257 7.906425
vt 0.413268 7.906425
vt 0.586739 7.906425
vt 0.749751 7.906425
vt 0.882644 7.906425
vt 0.969375 7.906425
vt 0.117364 7.906425
vt 0.250257 7.906425
vt 0.413268 7.906425
vt 0.586739 7.906425
vt 0.030627 7.906425
vt 0.749751 7.906425
vt 0.117364 7.906425
vt 0.882644 7.906425
vt 0.969375 7.906425
vt 0.000499 -6.906427
vt 0.000499 -6.906427
vt 0.030629 -6.906427
vt 0.030629 -6.906427
vt 0.000509 7.906425
vt 0.999500 7.906425
vt 0.999500 7.906425
vt 0.000509 7.906425
s 0
usemtl in_gutter.001
f 113/145/22 133/165/22 131/163/22
f 98/130/23 113/145/23 131/163/23
f 120/152/23 113/145/23 98/130/23
f 99/131/24 120/152/24 98/130/24
f 114/146/24 120/152/24 99/131/24
f 100/132/25 114/146/25 99/131/25
f 115/147/25 114/146/25 100/132/25
f 101/133/26 115/147/26 100/132/26
f 116/148/26 115/147/26 101/133/26
f 102/134/27 116/148/27 101/133/27
f 117/149/28 116/148/28 102/134/28
f 103/135/29 117/149/29 102/134/29
f 118/150/29 117/149/29 103/135/29
f 104/136/30 118/150/30 103/135/30
f 119/151/30 118/150/30 104/136/30
f 97/129/31 119/151/31 104/136/31
f 134/166/32 119/151/32 97/129/32
f 124/156/33 136/168/33 132/164/33
f 105/137/23 124/156/23 132/164/23
f 126/158/23 124/156/23 105/137/23
f 106/138/24 126/158/24 105/137/24
f 121/153/24 126/158/24 106/138/24
f 107/139/25 121/153/25 106/138/25
f 122/154/25 121/153/25 107/139/25
f 108/140/26 122/154/26 107/139/26
f 123/155/26 122/154/26 108/140/26
f 109/141/27 123/155/27 108/140/27
f 125/157/27 123/155/27 109/141/27
f 110/142/29 125/157/29 109/141/29
f 127/159/29 125/157/29 110/142/29
f 111/143/30 127/159/30 110/142/30
f 128/160/30 127/159/30 111/143/30
f 112/144/34 128/160/34 111/143/34
f 135/167/35 128/160/35 112/144/35
f 131/163/22 133/165/22 130/162/22
f 132/164/33 136/168/33 129/161/33
o Venue01.lwo.005
v -1.746129 1.262309 -10.607900
v -1.786129 1.303159 -10.419700
v -1.786129 0.682329 -10.420800
v -1.893529 0.682329 -10.420800
v -1.893529 1.303159 -10.419700
v -1.933429 0.667546 -10.524700
v -1.933429 1.288379 -10.523600
v -1.746129 1.288379 -10.523600
v -1.746129 0.667546 -10.524700
v -1.746229 0.026043 -10.115700
v -1.786229 0.057510 -10.023100
v -1.893529 0.057510 -10.023100
v -1.933529 0.026042 -10.115700
v -0.135829 1.262309 -10.607900
v 0.173571 1.262309 -10.607900
v 1.782671 1.262309 -10.607900
v 1.969971 1.262309 -10.607900
v 0.133571 0.699012 -10.419600
v -0.095829 0.699012 -10.419600
v -0.095829 1.319839 -10.419700
v 0.133571 1.319839 -10.419700
v 0.133571 0.057510 -10.029600
v -0.095929 0.057510 -10.029600
v -0.135829 0.667546 -10.524700
v -0.135829 1.288379 -10.523600
v -0.135829 0.641479 -10.609000
v -0.135929 0.026042 -10.113100
v -0.135929 -0.000023 -10.215600
v 0.173571 0.667546 -10.524700
v 0.173571 0.026043 -10.113100
v 0.173571 1.288379 -10.523600
v 1.929971 1.303159 -10.419700
v 1.929971 0.682329 -10.420800
v 1.822571 0.682329 -10.420800
v 1.822571 1.303159 -10.419700
v 1.782671 0.667546 -10.524700
v 1.782671 1.288379 -10.523600
v 1.969971 1.288379 -10.523600
v 1.969971 0.667546 -10.524700
v 1.929871 0.057510 -10.023100
v 1.822571 0.057510 -10.023100
v 1.782571 0.026042 -10.115700
v 1.969971 0.641479 -10.609000
v 1.969871 0.026043 -10.115700
v 1.969971 -0.000022 -10.215600
v -1.786129 0.057512 10.550300
v -1.893529 0.057512 10.550300
v -1.746129 0.026043 10.568100
v -1.933429 0.026044 10.568100
v -1.933429 -0.000018 10.594800
v -1.746129 -0.000018 10.594800
v -0.135829 -0.000022 10.594800
v 0.133571 0.057512 10.550300
v -0.095829 0.057512 10.550300
v -0.135829 0.026044 10.568100
v 0.173571 0.026043 10.568100
v 0.173571 -0.000018 10.594800
v 1.929971 0.057512 10.550300
v 1.822571 0.057512 10.550300
v 1.782671 0.026044 10.568100
v 1.782671 -0.000018 10.594800
v 1.969971 -0.000018 10.594800
v 1.969971 0.026043 10.568100
v -1.746129 -0.000022 -10.215600
v -1.746129 0.641479 -10.609000
v 0.173571 -0.000022 -10.215600
v 0.173571 0.641481 -10.609000
v 1.782571 -0.000025 -10.215600
v 1.782671 0.641478 -10.609000
vn -0.0000 -0.0018 1.0000
vn -0.9335 -0.0006 0.3586
vn 0.9332 -0.0006 0.3594
vn 1.0000 -0.0000 -0.0000
vn 1.0000 0.0002 0.0005
vn 0.9221 0.2078 0.3265
vn -0.0000 0.5370 0.8436
vn -0.9222 0.2078 0.3261
vn -0.0000 1.0000 -0.0000
vn 0.6183 0.7859 -0.0000
vn 1.0000 0.0019 -0.0000
vn -0.6188 0.7856 -0.0000
vn -0.0000 0.0002 1.0000
vn -0.0000 0.5195 0.8545
vn -0.9339 -0.0003 0.3576
vn -1.0000 -0.0000 -0.0000
vn -0.9240 0.2027 0.3243
vn -1.0000 0.0001 -0.0000
vn 0.9240 0.2026 0.3243
vn 0.9339 -0.0003 0.3576
vn 0.6183 0.7860 -0.0000
vn -0.6183 0.7859 -0.0000
vn -0.2450 0.6938 0.6772
vn -0.0000 0.6118 0.7910
vn 0.2445 0.6939 0.6773
vn -0.2444 0.6938 0.6774
vt 1.000000 0.915190
vt 0.786597 1.000000
vt 0.786597 0.084814
vt 0.786667 1.000000
vt 0.213422 0.084814
vt 0.213679 1.000000
vt 0.213423 1.000000
vt 0.000020 0.038428
vt 0.000346 0.954986
vt 0.000020 0.953614
vt 0.999990 0.953614
vt 1.000000 0.038428
vt 1.000000 0.954986
vt 0.999726 0.037291
vt 0.999723 19.876991
vt 0.786279 0.082307
vt 0.786277 19.838411
vt 0.213452 0.082307
vt 0.213452 19.838411
vt 0.000024 0.037290
vt 0.000024 19.876991
vt 0.000000 0.915187
vt 1.000000 0.915187
vt 0.000020 0.915190
vt 1.000000 0.915190
vt 0.870839 1.000000
vt 0.870813 0.084811
vt 0.129187 0.084811
vt 0.129362 1.000000
vt 0.129187 1.000000
vt 0.870813 1.000000
vt 0.870603 0.082304
vt 0.870602 19.838415
vt 0.129225 0.082304
vt 0.129225 19.838415
vt 0.000000 0.038425
vt 0.000201 0.954986
vt 0.000000 0.953611
vt 0.000000 0.000000
vt 0.000201 0.917697
vt 0.000007 0.037287
vt 0.000007 19.876995
vt 0.000000 0.000000
vt 0.000000 19.919436
vt 1.000000 0.954986
vt 0.000000 1.000000
vt 1.000000 0.038425
vt 0.999833 0.037289
vt 0.999832 19.876995
vt 0.999994 0.953611
vt 0.786597 1.000000
vt 0.786597 0.084814
vt 0.786667 1.000000
vt 0.213422 0.084814
vt 0.213679 1.000000
vt 0.213423 1.000000
vt 0.000020 0.038428
vt 0.000346 0.954986
vt 0.000020 0.953614
vt 0.999990 0.953614
vt 1.000000 0.038428
vt 1.000000 0.954986
vt 0.786279 0.082307
vt 0.786277 19.838411
vt 0.213452 0.082307
vt 0.213452 19.838411
vt 0.000024 0.037290
vt 0.000024 19.876991
vt 0.999977 0.000002
vt 0.999977 0.917696
vt 0.999726 0.037291
vt 0.999723 19.876991
vt 0.999736 0.000003
vt 0.999733 19.919432
vt 0.786667 -18.919441
vt 0.786593 1.000000
vt 0.213681 -18.919441
vt 0.213407 1.000000
vt 0.999990 -18.919441
vt 0.999990 0.453001
vt 0.000348 -18.919441
vt 0.000000 0.453022
vt 0.000010 0.000000
vt 1.000000 -18.919441
vt 1.000000 0.000000
vt 0.000202 -18.919436
vt 0.000000 0.000000
vt 0.870838 -18.919436
vt 0.870807 1.000000
vt 0.129364 -18.919436
vt 0.129187 1.000000
vt 0.000202 -18.919436
vt 0.000000 0.453058
vt 0.999994 -18.919436
vt 0.999988 0.453038
vt 1.000000 -18.919436
vt 1.000000 0.000066
vt 0.786667 -18.919441
vt 0.786583 1.000000
vt 0.213681 -18.919441
vt 0.213397 1.000000
vt 0.000348 -18.919441
vt 0.000000 0.453022
vt 0.000348 -18.919441
vt 0.000000 0.000000
vt 1.000000 -18.919441
vt 1.000000 0.000000
vt 0.999990 -18.919441
vt 0.999980 0.453001
vt 0.999736 0.000003
vt 0.999733 19.919432
vt 0.999977 0.000002
vt 0.999977 0.917696
vt 0.999838 19.919436
vt 0.000000 1.000000
vt 1.000000 0.000002
vt 0.000000 0.000000
vt 0.000000 19.919441
vt 0.000000 0.000000
vt 0.000326 0.917695
s 0
usemtl Gutter_lid.001
f 141/175/36 140/173/36 139/171/36 138/170/36
f 143/178/37 142/176/37 140/173/37 141/175/37
f 139/171/38 145/180/38 144/179/38 138/170/38
f 145/180/39 201/280/39 137/169/39 144/179/39
f 146/182/40 200/278/40 201/281/40 145/181/40
f 145/181/41 139/172/41 147/184/41 146/182/41
f 140/174/42 148/186/42 147/184/42 139/172/42
f 142/177/43 149/188/43 148/186/43 140/174/43
f 183/245/44 182/243/44 147/185/44 148/187/44
f 182/243/45 184/247/45 146/183/45 147/185/45
f 200/279/46 146/183/46 184/247/46 187/252/46
f 185/249/47 183/245/47 148/187/47 149/189/47
f 157/199/48 156/198/48 155/196/48 154/195/48
f 155/197/49 159/202/49 158/200/49 154/194/49
f 156/198/50 161/206/50 160/204/50 155/196/50
f 161/206/51 150/190/51 162/207/51 160/204/51
f 155/197/52 160/205/52 163/209/52 159/202/52
f 160/205/53 162/208/53 164/211/53 163/209/53
f 158/200/54 166/216/54 165/213/54 154/194/54
f 166/217/39 202/282/39 203/283/39 165/214/39
f 154/195/55 165/215/55 167/218/55 157/199/55
f 165/215/39 203/284/39 151/191/39 167/218/39
f 171/224/36 170/222/36 169/220/36 168/219/36
f 173/227/37 172/225/37 170/222/37 171/224/37
f 173/227/51 152/192/51 205/287/51 172/225/51
f 169/220/38 175/229/38 174/228/38 168/219/38
f 175/229/39 179/237/39 153/193/39 174/228/39
f 180/239/40 181/241/40 179/238/40 175/230/40
f 175/230/41 169/221/41 176/231/41 180/239/41
f 170/223/42 177/233/42 176/231/42 169/221/42
f 172/226/43 178/235/43 177/233/43 170/223/43
f 205/288/53 204/285/53 178/235/53 172/226/53
f 195/268/44 194/266/44 176/232/44 177/234/44
f 194/266/56 199/276/56 180/240/56 176/232/56
f 196/270/47 195/268/47 177/234/47 178/236/47
f 178/236/51 204/286/51 197/272/51 196/270/51
f 190/258/44 189/256/44 158/201/44 159/203/44
f 191/260/57 190/258/57 159/203/57 163/210/57
f 163/210/51 164/212/51 188/254/51 191/260/51
f 158/201/45 189/256/45 192/262/45 166/217/45
f 193/264/39 202/282/39 166/217/39 192/262/39
f 181/242/46 180/240/46 199/276/46 198/274/46
f 183/246/58 185/250/58 186/251/58
f 182/244/59 183/246/59 186/251/59
f 187/253/59 182/244/59 186/251/59
f 184/248/60 182/244/60 187/253/60
f 190/259/61 191/261/61 188/255/61
f 192/263/60 189/257/60 193/265/60
f 189/257/59 190/259/59 188/255/59
f 193/265/59 189/257/59 188/255/59
f 195/269/58 196/271/58 197/273/58
f 194/267/59 195/269/59 197/273/59
f 198/275/59 194/267/59 197/273/59
f 199/277/60 194/267/60 198/275/60
o Venue01.lwo.006
v -1.746129 0.951893 -10.608500
v -0.137129 -1.071081 -10.215600
v -1.746129 -1.071081 -10.215600
v -0.137129 -0.535551 -10.215600
v -1.746229 -0.535551 -10.215600
v -1.747429 -1.062891 -10.782100
v -0.135829 -1.062891 -10.782100
v -1.747429 -1.062891 -12.468100
v -0.135829 -1.062891 -12.468100
v -1.747429 0.205474 -12.468100
v -0.137129 0.641476 -10.609000
v -0.135829 0.205474 -12.468100
v -0.137129 0.951892 -10.608500
v 1.782671 0.951892 -10.608500
v 0.173571 0.951893 -10.608500
v 0.173571 -0.535551 -10.215600
v 0.173571 -1.071081 -10.215600
v 1.782571 -0.535551 -10.215600
v 1.782571 -1.071081 -10.215600
v 0.172271 -1.062891 -12.468100
v 0.172271 -1.062891 -10.782100
v 1.783871 -1.062891 -10.782100
v 1.783871 -1.062891 -12.468100
v 0.172271 0.205474 -12.468100
v 1.783871 0.205474 -12.468100
v -0.137129 -0.000027 -10.215600
v -1.746129 -0.000022 -10.215600
v -1.746129 0.641479 -10.609000
v 0.173571 -0.000022 -10.215600
v 0.173571 0.641481 -10.609000
v 1.782571 -0.000025 -10.215600
v 1.782671 0.641478 -10.609000
vn -0.0000 0.9999 0.0145
vn -0.0000 1.0000 -0.0000
vn -0.0000 -0.9736 0.2283
vn -1.0000 -0.0000 -0.0023
vn -1.0000 -0.0000 -0.0000
vn -1.0000 -0.0007 -0.0005
vn -0.0000 -0.0000 1.0000
vn 1.0000 -0.0008 -0.0000
vn 1.0000 -0.0000 -0.0007
vn 1.0000 0.0002 -0.0023
vn 1.0000 -0.0002 -0.0003
vn -0.0000 -0.0016 1.0000
vn -1.0000 -0.0006 -0.0018
vn 1.0000 -0.0006 -0.0016
vn -1.0000 -0.0000 -0.0003
vn 1.0000 -0.0000 -0.0023
vn 1.0000 -0.0000 -0.0000
vn -1.0000 -0.0005 -0.0018
vn 1.0000 -0.0006 -0.0018
vt 0.000817 1.000000
vt 0.999189 0.000000
vt 0.000001 0.000000
vt 0.000811 0.000000
vt 0.000001 0.000000
vt 0.000001 0.312706
vt 0.000001 0.312706
vt 0.000003 0.354309
vt 0.354310 0.004781
vt 1.000000 0.354311
vt 0.354311 0.004781
vt 0.000000 1.000000
vt 0.000000 0.004048
vt 1.000000 0.004781
vt 0.999997 1.000000
vt 1.000000 0.004781
vt 1.000000 0.004048
vt 0.000003 0.631028
vt 1.000000 0.745407
vt 0.999230 0.846554
vt 0.426290 0.999998
vt 1.000000 0.745407
vt 1.000000 0.631028
vt 0.999227 0.999999
vt 0.999224 0.999999
vt 0.000817 1.000000
vt 0.000001 0.312706
vt 0.000811 0.000000
vt 0.000001 0.000000
vt 0.000001 0.312706
vt 0.999189 0.000000
vt 0.000001 0.000000
vt 0.000000 1.000000
vt 0.000000 0.004048
vt 1.000000 0.004781
vt 0.000003 0.354309
vt 0.354310 0.004781
vt 1.000000 0.354311
vt 0.354311 0.004781
vt 0.999997 1.000000
vt 1.000000 0.004781
vt 0.999997 0.004048
vt 0.000003 0.631028
vt 1.000000 0.745407
vt 1.000000 0.745407
vt 0.999997 0.631028
vt 0.000001 0.625410
vt 0.000000 0.625413
vt 0.000817 0.846555
vt 0.426290 1.000000
vt 0.000000 0.625413
vt 0.000818 0.846556
vt 0.426287 1.000000
vt 0.000001 0.625411
vt 0.999224 0.846555
vt 0.426290 0.999998
s 0
usemtl pit.001
f 208/292/62 207/290/62 211/296/62
f 212/298/62 211/296/62 207/290/62
f 211/296/63 212/298/63 213/300/63
f 214/303/63 213/300/63 212/298/63
f 217/311/64 216/308/64 215/306/64
f 233/337/64 215/306/64 216/308/64
f 212/299/65 207/291/65 209/294/65
f 231/335/66 216/309/66 209/294/66
f 214/304/66 212/299/66 217/310/66
f 216/309/67 217/310/67 212/299/67
f 213/301/68 214/305/68 215/306/68
f 217/311/68 215/306/68 214/305/68
f 211/297/69 213/302/69 233/338/69
f 215/307/70 233/338/70 213/302/70
f 208/293/71 211/297/71 210/295/71
f 233/338/72 232/336/72 210/295/72
f 218/312/73 206/289/73 233/337/73
f 233/337/73 216/308/73 218/312/73
f 209/294/74 216/309/74 212/299/74
f 210/295/75 211/297/75 233/338/75
f 222/316/62 224/319/62 226/324/62
f 227/326/62 226/324/62 224/319/62
f 226/324/63 227/326/63 225/321/63
f 228/328/63 225/321/63 227/326/63
f 230/334/64 237/343/64 229/331/64
f 235/340/64 229/331/64 237/343/64
f 227/327/65 224/320/65 223/318/65
f 236/342/76 237/344/76 223/318/76
f 228/329/66 227/327/66 230/333/66
f 237/344/67 230/333/67 227/327/67
f 225/322/68 228/330/68 229/331/68
f 230/334/68 229/331/68 228/330/68
f 226/325/69 225/323/69 235/341/69
f 229/332/70 235/341/70 225/323/70
f 222/317/77 226/325/77 221/315/77
f 235/341/78 234/339/78 221/315/78
f 219/313/73 220/314/73 235/340/73
f 235/340/73 237/343/73 219/313/73
f 223/318/79 237/344/79 227/327/79
f 221/315/80 226/325/80 235/341/80
